# xmcd
#
# Track frame offsets:
#	150
#	13027
#	26085
#	38980
#	52412
#	67150
#	87842
#	100810
#	116267
#	126842
#	140190
#	154027
#	171162
#	186802
#	204440
#	222325
#
# Disc length: 3167 seconds
#
# Revision: 2
# Processed by: cddbd v1.5.2PL0 Copyright (c) Steve Scherf et al.
# Submitted via: audiograbber 1.83.01
#
DISCID=ed0c5d10
DTITLE=MH1041 Monster Hits - Male Country Classics (MH)
DYEAR=2008
DGENRE=Karaoke
TTITLE0=Merle Haggard - If We Make It Through December (MH)
TTITLE1=Ray Price - Invitation To The Blues (MH)
TTITLE2=Bellamy Brothers - Let Your Love Flow (MH)
TTITLE3=Johnny Cash - Man In Black (MH)
TTITLE4=Dan Seals - Bop (MH)
TTITLE5=Marty Robbins - El Paso City (MH)
TTITLE6=George Strait - Amarillo By Morning (MH)
TTITLE7=Bellamy Brothers - If I Said You Have A Beautiful Body (MH)
TTITLE8=Don Williams - (Turn Out The Light And) Love Me Tonight (MH)
TTITLE9=Eddie Rabbitt - Every Which Way But Loose (MH)
TTITLE10=Charlie Rich - Behind Closed Doors (MH)
TTITLE11=Marty Robbins - Don't Worry (MH)
TTITLE12=Kris Kristofferson - Why Me (MH)
TTITLE13=C W McCall - Convoy (MH)
TTITLE14=Ronnie Milsap - Smoky Mountain Rain (MH)
TTITLE15=Mac Davis - Baby Don't Get Hooked On Me (MH)
EXTD=
EXTT0=
EXTT1=
EXTT2=
EXTT3=
EXTT4=
EXTT5=
EXTT6=
EXTT7=
EXTT8=
EXTT9=
EXTT10=
EXTT11=
EXTT12=
EXTT13=
EXTT14=
EXTT15=
PLAYORDER=
